<svg width="155" height="25" viewBox="0 0 155 25" fill="none" xmlns="http://www.w3.org/2000/svg">
<path fill-rule="evenodd" clip-rule="evenodd" d="M0 0.0239236V25H4.89091V7.78021L15.5153 21.7225H17.8417L28.4661 7.78021V25H48.5535V20.8394H42.455L51.5708 5.10555L63.097 24.9916H75.2206V4.56809H89.7855C89.9224 4.56809 90.0562 4.58415 90.1858 4.61443C90.3155 4.64472 90.441 4.68921 90.5607 4.74658C90.6804 4.80392 90.7944 4.8741 90.9013 4.95535C91.0081 5.0366 91.1077 5.12881 91.1988 5.23082C91.29 5.3328 91.3727 5.44454 91.4453 5.56405C91.518 5.68355 91.5807 5.81107 91.632 5.94501C91.6832 6.07896 91.723 6.21922 91.7501 6.36434C91.7772 6.50945 91.7915 6.6591 91.7915 6.81222V8.88302C91.7915 9.03614 91.7771 9.18579 91.7501 9.3309C91.723 9.47602 91.6832 9.61629 91.632 9.75023C91.5807 9.88417 91.518 10.0117 91.4453 10.1312C91.3727 10.2507 91.2901 10.3621 91.1988 10.4641C91.1077 10.5661 91.008 10.6585 90.9013 10.7398C90.7944 10.821 90.6804 10.8912 90.5607 10.9486C90.441 11.0059 90.3156 11.0504 90.1858 11.0807C90.0562 11.111 89.9222 11.127 89.7855 11.127H78.2734V15.6807H92.5302C95.1457 15.6807 97.3227 13.2453 97.3227 10.3198V5.37411C97.3227 5.10043 97.3036 4.83107 97.267 4.56761H100.507V24.9911H106.382V4.56761H120.946C121.083 4.56761 121.217 4.58368 121.347 4.61395C121.476 4.6442 121.602 4.68872 121.722 4.7461C121.841 4.80344 121.955 4.87361 122.062 4.95486C122.169 5.03611 122.269 5.12833 122.36 5.23034C122.451 5.33232 122.534 5.44406 122.606 5.56356C122.679 5.68307 122.742 5.81059 122.793 5.94453C122.844 6.07837 122.884 6.21874 122.911 6.36385C122.938 6.50897 122.952 6.65861 122.952 6.81174V8.88254C122.952 9.03566 122.938 9.1853 122.911 9.33042C122.884 9.47553 122.844 9.6158 122.793 9.74974C122.742 9.88369 122.679 10.0112 122.606 10.1307C122.534 10.2502 122.451 10.3616 122.36 10.4636C122.269 10.5656 122.169 10.658 122.062 10.7393C121.955 10.8206 121.841 10.8907 121.722 10.9481C121.602 11.0054 121.477 11.0499 121.347 11.0802C121.217 11.1105 121.083 11.1266 120.946 11.1266H109.434V15.6802H123.691C123.963 15.6802 124.229 15.6525 124.49 15.6021L118.792 24.994H133.878V20.8334H127.779L136.895 5.09955L148.422 24.9856H155L139.843 0.0094854H133.942L128.479 9.01457V5.37038C128.479 2.44492 126.302 0.0094854 123.686 0.0094854H62.0491V4.56314H69.3529V20.8239H67.1557L54.5226 0H48.622L35.9888 20.8239H33.352V0H28.4611L16.6729 15.4704L4.8847 0L0 0.0239236Z" fill="white"/>
</svg>
