<svg width="120" height="120" viewBox="0 0 120 120" fill="none" xmlns="http://www.w3.org/2000/svg">
<path d="M4.77545 50.8347L5.27552 48.7629L11.7786 46.7731L6.0874 45.3994L6.47863 43.7786L14.595 45.7377L14.1008 47.785L7.55528 49.7904L13.283 51.1729L12.8918 52.7938L4.77545 50.8347Z" fill="#9F9F9F"/>
<path d="M19.5252 35.504C19.0936 36.2002 18.56 36.72 17.9243 37.0635C17.2886 37.4069 16.6012 37.5561 15.8622 37.511C15.1276 37.4588 14.4015 37.2103 13.684 36.7656C12.9594 36.3165 12.4104 35.7745 12.0368 35.1398C11.6632 34.5051 11.4888 33.8267 11.5136 33.1046C11.5384 32.3824 11.7687 31.6697 12.2047 30.9665C12.6362 30.2703 13.1698 29.7505 13.8055 29.407C14.4341 29.0592 15.1122 28.9091 15.8397 28.9569C16.5673 29.0047 17.2898 29.251 18.0072 29.6957C18.7389 30.1493 19.2951 30.6956 19.6758 31.3347C20.0494 31.9694 20.2273 32.65 20.2096 33.3766C20.1848 34.0987 19.9567 34.8078 19.5252 35.504ZM18.1719 34.6652C18.533 34.0827 18.6118 33.4875 18.4084 32.8796C18.2095 32.2646 17.7619 31.7414 17.0657 31.3099C16.6111 31.028 16.1591 30.861 15.7097 30.8086C15.2577 30.7447 14.8468 30.8047 14.4772 30.9886C14.1048 31.1609 13.802 31.4354 13.5686 31.8119C13.3352 32.1884 13.222 32.5853 13.2288 33.0025C13.233 33.4083 13.3621 33.8029 13.616 34.1864C13.8672 34.5585 14.2201 34.8854 14.6748 35.1672C15.1294 35.449 15.5792 35.6197 16.0242 35.6792C16.4735 35.7315 16.8844 35.6715 17.2567 35.4992C17.6291 35.3268 17.9341 35.0488 18.1719 34.6652Z" fill="#9F9F9F"/>
<path d="M20.4486 20.2096L21.9666 19.0167L26.8205 22.8396L24.314 17.2357L26.0488 15.6491L31.1873 19.6312L28.5215 13.8653L29.9311 12.7575L33.316 20.7167L31.591 22.0723L26.237 17.877L28.9986 24.1097L27.2933 25.4498L20.4486 20.2096Z" fill="#9F9F9F"/>
<path d="M49.3516 5.53693L51.5061 5.1954L55.8717 12.9571L54.0144 13.2515L53.0474 11.4754L49.8033 11.9897L49.4702 13.9719L47.6376 14.2623L49.3516 5.53693ZM52.2716 10.0244L50.6567 7.04364L50.08 10.3718L52.2716 10.0244Z" fill="#9F9F9F"/>
<path d="M62.1885 6.53006L64.1264 6.58387L64.9961 11.3713L66.8847 7.06356L68.7645 7.28722L65.7485 13.4303L63.6944 13.1859L62.1885 6.53006Z" fill="#9F9F9F"/>
<path d="M75.5226 16.0854C74.8999 15.8418 74.5092 15.3839 74.3504 14.7115C74.1916 14.0391 74.2903 13.2476 74.6465 12.3369C75.0788 11.2316 75.6878 10.5006 76.4735 10.1438C77.2623 9.77928 78.1821 9.8025 79.2328 10.2135C79.8244 10.4449 80.4806 10.8093 81.2014 11.3066L78.8952 17.2027L77.3307 16.5907L77.7402 15.647L77.6935 15.6288C77.3481 15.9154 76.9894 16.0982 76.6175 16.1771C76.2534 16.2591 75.8884 16.2285 75.5226 16.0854ZM76.4346 14.7863C76.6759 14.8807 76.9635 14.8451 77.2975 14.6796C77.6314 14.5141 77.9833 14.2569 78.3532 13.9079L79.1204 11.9465C78.8987 11.779 78.6633 11.6465 78.4143 11.5491C77.9473 11.3664 77.5307 11.3875 77.1646 11.6122C76.8062 11.84 76.5053 12.2653 76.2617 12.8879C76.0699 13.3783 75.9877 13.7949 76.0152 14.1377C76.0457 14.4727 76.1855 14.6889 76.4346 14.7863Z" fill="#9F9F9F"/>
<path d="M90.4044 13.271L92.0633 14.4208L91.1349 15.7603L89.476 14.6105L90.4044 13.271ZM85.2515 18.989L86.2407 19.6746L88.1903 16.8617L87.2012 16.1761L88.0653 14.9293L90.5073 16.6219L87.6935 20.6816L88.5797 21.2957L87.7155 22.5425L84.3874 20.2358L85.2515 18.989Z" fill="#9F9F9F"/>
<path d="M93.2075 25.3135L93.9874 26.1462L98.4617 21.9553L97.7247 21.1685L98.8227 20.14L100.768 22.2171L95.1958 27.4363L95.9757 28.269L94.8685 29.3059L92.1004 26.3505L93.2075 25.3135Z" fill="#9F9F9F"/>
<path d="M99.3444 35.9287C99.0125 35.3482 98.9957 34.7465 99.294 34.1233C99.5924 33.5002 100.166 32.9459 101.015 32.4605C102.045 31.8714 102.978 31.6845 103.814 31.8998C104.657 32.111 105.358 32.7064 105.918 33.6858C106.233 34.2372 106.516 34.9328 106.765 35.7724L101.269 38.9152L100.435 37.4569L101.346 36.9792L101.321 36.9357C100.872 36.942 100.478 36.8592 100.139 36.6872C99.8043 36.5225 99.5394 36.2697 99.3444 35.9287ZM100.87 35.4897C100.998 35.7146 101.245 35.8674 101.608 35.9482C101.972 36.0289 102.408 36.0495 102.915 36.0099L104.743 34.9644C104.676 34.6949 104.575 34.4441 104.443 34.2119C104.194 33.7766 103.856 33.5315 103.43 33.4767C103.008 33.4291 102.507 33.5713 101.927 33.9032C101.469 34.1646 101.144 34.4374 100.95 34.7215C100.764 35.0014 100.737 35.2575 100.87 35.4897Z" fill="#9F9F9F"/>
<path d="M104.188 47.2468C104.02 46.5997 103.918 45.81 103.883 44.8779L112.631 42.6028L113.07 44.2893L109.855 45.1255C110.496 45.4681 110.908 45.9872 111.089 46.6829C111.274 47.3947 111.148 48.0233 110.711 48.5686C110.282 49.1119 109.587 49.5087 108.624 49.759C107.476 50.0578 106.521 49.9908 105.761 49.5581C105.001 49.1253 104.477 48.3549 104.188 47.2468ZM105.728 47.0406C105.859 47.5421 106.123 47.8792 106.522 48.0518C106.923 48.2325 107.443 48.2397 108.082 48.0735C108.608 47.9368 108.993 47.7416 109.238 47.4879C109.485 47.2423 109.568 46.9618 109.486 46.6463C109.418 46.3875 109.262 46.169 109.017 45.9909C108.781 45.8107 108.465 45.6768 108.071 45.5893L105.632 46.2236C105.625 46.4933 105.657 46.7656 105.728 47.0406Z" fill="#9F9F9F"/>
<path d="M107.576 57.2739L107.588 58.4146L113.718 58.3496L113.707 57.2715L115.211 57.2556L115.241 60.1013L107.607 60.1822L107.619 61.323L106.102 61.3391L106.059 57.2899L107.576 57.2739Z" fill="#9F9F9F"/>
<path d="M104.665 70.3888C104.907 69.3724 105.39 68.641 106.114 68.1946C106.837 67.7563 107.719 67.6608 108.759 67.908C109.434 68.0684 109.99 68.3335 110.426 68.7034C110.87 69.0752 111.173 69.5207 111.333 70.0398C111.491 70.5671 111.497 71.1397 111.35 71.7577C111.134 72.6684 110.675 73.2982 109.973 73.647C109.272 73.9958 108.368 74.0389 107.262 73.7762C107.075 73.7317 106.938 73.6948 106.851 73.6655L107.836 69.5184C107.385 69.4973 107.012 69.6061 106.714 69.8448C106.425 70.0853 106.222 70.4536 106.104 70.9497C106.033 71.2505 105.995 71.5723 105.991 71.9149C105.995 72.2595 106.033 72.5692 106.105 72.8441L104.66 72.7972C104.567 72.4314 104.522 72.0386 104.528 71.6189C104.523 71.2054 104.569 70.7954 104.665 70.3888ZM108.532 72.3381C108.887 72.3968 109.193 72.3405 109.448 72.1693C109.712 71.9999 109.887 71.7323 109.974 71.3664C110.057 71.0167 110.024 70.7039 109.875 70.4279C109.723 70.1601 109.476 69.9552 109.132 69.8133L108.532 72.3381Z" fill="#9F9F9F"/>
<path d="M99.0199 87.3387L98.3229 88.2419L101.032 90.3329L101.729 89.4298L102.93 90.3566L102.233 91.2597L102.859 91.7423C103.355 92.1253 103.629 92.5904 103.682 93.1378C103.741 93.6903 103.566 94.2312 103.158 94.7605C102.872 95.1311 102.463 95.4698 101.93 95.7767L101.204 94.4402C101.49 94.3021 101.702 94.1437 101.84 93.965C101.957 93.8128 102.006 93.6606 101.987 93.5082C101.967 93.3558 101.874 93.2157 101.709 93.0881L101.153 92.6591L100.234 93.8501L99.0332 92.9233L99.9524 91.7323L97.2429 89.6413L96.3238 90.8323L95.1229 89.9055L97.819 86.4119L99.0199 87.3387Z" fill="#9F9F9F"/>
<path d="M88.0008 96.4566C88.5161 96.0574 89.059 95.8165 89.6295 95.7341C90.1934 95.6567 90.7404 95.7351 91.2707 95.9693C91.806 96.21 92.281 96.598 92.6956 97.1332C93.1102 97.6684 93.3679 98.2194 93.4686 98.7862C93.5679 99.3648 93.5097 99.9174 93.2939 100.444C93.0715 100.976 92.7026 101.441 92.1872 101.84C91.6718 102.24 91.1322 102.478 90.5684 102.555C90.003 102.644 89.4585 102.569 88.9349 102.33C88.4046 102.096 87.9348 101.714 87.5253 101.186C87.1107 100.651 86.8512 100.091 86.7468 99.5054C86.6409 98.9319 86.6966 98.376 86.9139 97.8377C87.1297 97.3111 87.492 96.8507 88.0008 96.4566ZM88.9473 97.658C88.5905 97.9344 88.4113 98.29 88.4098 98.7246C88.4067 99.1711 88.5792 99.6189 88.9272 100.068C89.2753 100.518 89.6607 100.79 90.0834 100.885C90.5047 100.992 90.8938 100.908 91.2506 100.631C91.6073 100.355 91.7898 99.9968 91.798 99.557C91.8047 99.129 91.6341 98.6903 91.286 98.241C90.938 97.7917 90.5507 97.5102 90.1243 97.3965C89.6965 97.2945 89.3041 97.3817 88.9473 97.658Z" fill="#9F9F9F"/>
<path d="M82.2456 107.836L80.6207 108.532L80.2061 107.564L80.1139 107.603C80.0589 108.091 79.9633 108.472 79.8272 108.749C79.6833 109.029 79.4462 109.239 79.1159 109.381C78.9776 109.44 78.8558 109.474 78.7504 109.483L78.173 107.657C78.3958 107.625 78.5687 107.583 78.6916 107.531C78.8683 107.455 79.011 107.353 79.1197 107.224C79.2207 107.099 79.3003 106.956 79.3585 106.795C79.409 106.637 79.4793 106.398 79.5694 106.077L78.0788 102.597L79.7037 101.901L82.2456 107.836Z" fill="#9F9F9F"/>
<path d="M59.3248 106.362C59.8095 106.366 60.2729 106.425 60.7149 106.537C61.1485 106.65 61.5233 106.799 61.8393 106.986L61.6741 108.665C61.3 108.427 60.9089 108.24 60.5005 108.103C60.0837 107.974 59.6998 107.908 59.3488 107.904C58.9477 107.901 58.621 107.982 58.3688 108.147C58.1166 108.312 57.9893 108.532 57.9869 108.808C57.9849 109.033 58.067 109.205 58.2331 109.324C58.3991 109.451 58.6612 109.587 59.0193 109.732L59.3191 109.86C59.3607 109.877 59.4066 109.894 59.4566 109.911C59.5065 109.937 59.5648 109.962 59.6314 109.988C60.0977 110.184 60.4722 110.367 60.7549 110.537C61.0375 110.715 61.282 110.96 61.4882 111.271C61.686 111.582 61.7828 111.984 61.7785 112.477C61.7714 113.279 61.4942 113.908 60.947 114.363C60.3997 114.818 59.6413 115.041 58.6718 115.032C57.9364 115.026 57.1855 114.869 56.4193 114.561L56.7096 112.909C57.0173 113.087 57.3504 113.228 57.7089 113.331C58.059 113.435 58.3929 113.488 58.7105 113.49C59.1033 113.494 59.409 113.417 59.6277 113.26C59.8463 113.112 59.9568 112.908 59.9591 112.649C59.961 112.423 59.8874 112.247 59.738 112.12C59.5887 111.994 59.3475 111.858 59.0145 111.713L58.5022 111.508C58.0191 111.32 57.6195 111.136 57.3035 110.958C56.9875 110.78 56.7181 110.523 56.4954 110.186C56.2726 109.858 56.1635 109.431 56.1681 108.905C56.1753 108.094 56.4566 107.465 57.0122 107.019C57.5677 106.572 58.3386 106.354 59.3248 106.362Z" fill="#9F9F9F"/>
<path d="M47.4982 104.811C48.0808 104.961 48.4964 105.224 48.7449 105.599C48.9832 105.98 49.0324 106.441 48.8924 106.983L48.0495 110.249L49.0206 110.499L48.6415 111.968L47.6704 111.718L47.3257 113.053C46.7261 113.002 46.1408 112.928 45.5699 112.833L45.9709 111.279L44.3929 110.872L44.772 109.403L46.3501 109.81L47.1115 106.86C47.1554 106.69 47.1403 106.548 47.0661 106.434C46.9839 106.318 46.8497 106.236 46.6636 106.188C46.437 106.129 46.1645 106.115 45.846 106.145L45.8018 104.761C46.3824 104.652 46.9479 104.669 47.4982 104.811Z" fill="#9F9F9F"/>
<path d="M36.3642 107.824L34.8011 106.998L35.2929 106.067L35.2042 106.02C34.7908 106.284 34.4338 106.45 34.1332 106.518C33.8252 106.582 33.5123 106.53 33.1945 106.363C33.0615 106.292 32.9584 106.219 32.8854 106.143L33.9415 104.545C34.1063 104.699 34.2479 104.806 34.3661 104.869C34.5361 104.959 34.7052 105.005 34.8733 105.009C35.0341 105.009 35.1955 104.981 35.3575 104.924C35.5121 104.864 35.7423 104.769 36.0481 104.637L37.816 101.289L39.3791 102.114L36.3642 107.824Z" fill="#9F9F9F"/>
<path d="M28.0055 94.2388C28.7768 94.9435 29.1816 95.7209 29.22 96.571C29.2522 97.4155 28.9075 98.2327 28.186 99.0225C27.7181 99.5347 27.2165 99.8916 26.6814 100.093C26.1406 100.301 25.6044 100.349 25.0728 100.237C24.5351 100.119 24.0317 99.846 23.5628 99.4176C22.8717 98.7862 22.544 98.0793 22.5796 97.2968C22.6153 96.5143 23.0165 95.7034 23.7831 94.8643C23.9128 94.7223 24.0117 94.6203 24.0799 94.558L27.2268 97.433C27.4639 97.0496 27.5503 96.6701 27.486 96.2944C27.4161 95.9248 27.1929 95.5681 26.8165 95.2242C26.5882 95.0157 26.3253 94.8264 26.0277 94.6564C25.7245 94.4926 25.4353 94.3756 25.16 94.3052L25.9026 93.0648C26.2678 93.1607 26.6326 93.3128 26.997 93.5212C27.3608 93.7177 27.697 93.9569 28.0055 94.2388ZM24.4238 96.6722C24.1999 96.9545 24.1008 97.2488 24.1265 97.5553C24.1465 97.8679 24.2954 98.1511 24.573 98.4048C24.8384 98.6472 25.1279 98.7701 25.4416 98.7737C25.7491 98.7717 26.0485 98.6546 26.3397 98.4226L24.4238 96.6722Z" fill="#9F9F9F"/>
<path d="M20.4299 85.4057C20.7882 85.9703 20.8326 86.5706 20.5633 87.2068C20.2939 87.843 19.7464 88.4231 18.9207 88.9471C17.9187 89.583 16.9953 89.8126 16.1507 89.6359C15.299 89.4637 14.5709 88.9013 13.9663 87.9486C13.6259 87.4123 13.312 86.7305 13.0246 85.9032L18.3701 82.5109L19.2702 83.9293L18.3821 84.4484L18.409 84.4907C18.8571 84.4637 19.2544 84.5283 19.601 84.6845C19.9431 84.8336 20.2194 85.0741 20.4299 85.4057ZM18.9264 85.9144C18.7876 85.6957 18.5346 85.5543 18.1674 85.4904C17.8001 85.4265 17.3642 85.4259 16.8597 85.4888L15.0814 86.6173C15.1612 86.8834 15.2727 87.1294 15.416 87.3552C15.6847 87.7786 16.0332 88.0079 16.4613 88.043C16.885 88.0711 17.3791 87.9061 17.9436 87.5478C18.3882 87.2656 18.7008 86.9782 18.8812 86.6855C19.0547 86.3973 19.0697 86.1402 18.9264 85.9144Z" fill="#9F9F9F"/>
<path d="M9.18147 78.3541L8.73997 76.6813L9.7097 76.4254C8.81997 76.1329 8.2642 75.5665 8.04238 74.726C7.91654 74.2492 7.92303 73.8153 8.06186 73.4243C8.19046 73.0273 8.44057 72.6976 8.81219 72.4353C8.29308 72.2698 7.88665 72.0399 7.59291 71.7458C7.28896 71.4457 7.07726 71.0693 6.95782 70.6168C6.78079 69.9461 6.84525 69.3715 7.15119 68.8931C7.44692 68.4088 7.95035 68.0728 8.66149 67.8851L12.8071 66.791L13.2582 68.5001L9.37926 69.5239C9.05602 69.6092 8.82684 69.7561 8.69171 69.9647C8.54637 70.1673 8.50889 70.4019 8.57927 70.6686C8.66672 70.9999 8.88515 71.2707 9.23456 71.4811C9.58396 71.6914 9.99095 71.8087 10.4555 71.833L13.898 70.9244L14.3491 72.6336L10.4702 73.6574C10.1551 73.7405 9.92588 73.8875 9.78267 74.0982C9.63946 74.3088 9.60305 74.5475 9.67343 74.8142C9.75235 75.1132 9.94014 75.3662 10.2368 75.5731C10.5232 75.7741 10.8898 75.9021 11.3365 75.9571L14.973 74.9973L15.4241 76.7065L9.18147 78.3541Z" fill="#9F9F9F"/>
</svg>
