<svg width="28" height="23" viewBox="0 0 28 23" fill="none" xmlns="http://www.w3.org/2000/svg">
<path fill-rule="evenodd" clip-rule="evenodd" d="M16.712 5.4939C16.3838 5.4939 16.0691 5.62427 15.837 5.85633C15.605 6.08839 15.4746 6.40314 15.4746 6.73132V16.6307C15.4746 16.9589 15.605 17.2737 15.837 17.5057C16.0691 17.7378 16.3838 17.8682 16.712 17.8682H21.6617C21.9899 17.8682 22.3047 17.7378 22.5367 17.5057C22.7688 17.2737 22.8992 16.9589 22.8992 16.6307V6.73132C22.8992 6.40314 22.7688 6.08839 22.5367 5.85633C22.3047 5.62427 21.9899 5.4939 21.6617 5.4939H16.712ZM20.4243 7.96875H17.9495V15.3933H20.4243V7.96875Z" fill="white"/>
<path d="M6.81164 5.4939C6.48346 5.4939 6.16872 5.62427 5.93665 5.85633C5.70459 6.08839 5.57422 6.40314 5.57422 6.73132C5.57422 7.05951 5.70459 7.37425 5.93665 7.60631C6.16872 7.83838 6.48346 7.96875 6.81164 7.96875H11.7613C12.0895 7.96875 12.4043 7.83838 12.6363 7.60631C12.8684 7.37425 12.9988 7.05951 12.9988 6.73132C12.9988 6.40314 12.8684 6.08839 12.6363 5.85633C12.4043 5.62427 12.0895 5.4939 11.7613 5.4939H6.81164ZM6.81164 10.4436C6.48346 10.4436 6.16872 10.574 5.93665 10.806C5.70459 11.0381 5.57422 11.3528 5.57422 11.681C5.57422 12.0092 5.70459 12.324 5.93665 12.556C6.16872 12.7881 6.48346 12.9185 6.81164 12.9185H11.7613C12.0895 12.9185 12.4043 12.7881 12.6363 12.556C12.8684 12.324 12.9988 12.0092 12.9988 11.681C12.9988 11.3528 12.8684 11.0381 12.6363 10.806C12.4043 10.574 12.0895 10.4436 11.7613 10.4436H6.81164ZM5.57422 16.6307C5.57422 16.3025 5.70459 15.9878 5.93665 15.7557C6.16872 15.5237 6.48346 15.3933 6.81164 15.3933H11.7613C12.0895 15.3933 12.4043 15.5237 12.6363 15.7557C12.8684 15.9878 12.9988 16.3025 12.9988 16.6307C12.9988 16.9589 12.8684 17.2737 12.6363 17.5057C12.4043 17.7378 12.0895 17.8682 11.7613 17.8682H6.81164C6.48346 17.8682 6.16872 17.7378 5.93665 17.5057C5.70459 17.2737 5.57422 16.9589 5.57422 16.6307Z" fill="white"/>
<path fill-rule="evenodd" clip-rule="evenodd" d="M4.33728 0.544067C3.35272 0.544067 2.40849 0.935181 1.7123 1.63137C1.01611 2.32756 0.625 3.27179 0.625 4.25635V19.1055C0.625 20.09 1.01611 21.0343 1.7123 21.7304C2.40849 22.4266 3.35272 22.8177 4.33728 22.8177H24.1361C25.1207 22.8177 26.0649 22.4266 26.7611 21.7304C27.4573 21.0343 27.8484 20.09 27.8484 19.1055V4.25635C27.8484 3.27179 27.4573 2.32756 26.7611 1.63137C26.0649 0.935181 25.1207 0.544067 24.1361 0.544067H4.33728ZM24.1361 3.01892H4.33728C4.00909 3.01892 3.69435 3.14929 3.46229 3.38135C3.23022 3.61342 3.09985 3.92816 3.09985 4.25635V19.1055C3.09985 19.4336 3.23022 19.7484 3.46229 19.9805C3.69435 20.2125 4.00909 20.3429 4.33728 20.3429H24.1361C24.4643 20.3429 24.779 20.2125 25.0111 19.9805C25.2432 19.7484 25.3735 19.4336 25.3735 19.1055V4.25635C25.3735 3.92816 25.2432 3.61342 25.0111 3.38135C24.779 3.14929 24.4643 3.01892 24.1361 3.01892Z" fill="white"/>
</svg>
