<svg width="120" height="120" viewBox="0 0 120 120" fill="none" xmlns="http://www.w3.org/2000/svg">
<path d="M4.77398 50.8347L5.27405 48.7629L11.7771 46.7731L6.08593 45.3994L6.47716 43.7786L14.5935 45.7377L14.0993 47.785L7.55381 49.7904L13.2816 51.1729L12.8904 52.7938L4.77398 50.8347Z" fill="#9F9F9F"/>
<path d="M19.5232 35.504C19.0917 36.2002 18.5581 36.72 17.9224 37.0635C17.2867 37.4069 16.5993 37.5561 15.8602 37.511C15.1256 37.4588 14.3996 37.2103 13.6821 36.7656C12.9575 36.3165 12.4084 35.7745 12.0348 35.1398C11.6613 34.5051 11.4869 33.8267 11.5117 33.1046C11.5364 32.3824 11.7668 31.6697 12.2027 30.9665C12.6342 30.2703 13.1679 29.7505 13.8036 29.407C14.4322 29.0592 15.1102 28.9091 15.8378 28.9569C16.5653 29.0047 17.2878 29.251 18.0053 29.6957C18.737 30.1493 19.2932 30.6956 19.6738 31.3347C20.0474 31.9694 20.2253 32.65 20.2077 33.3766C20.1829 34.0987 19.9547 34.8078 19.5232 35.504ZM18.1699 34.6652C18.531 34.0827 18.6099 33.4875 18.4065 32.8796C18.2075 32.2646 17.76 31.7414 17.0638 31.3099C16.6091 31.028 16.1571 30.861 15.7078 30.8086C15.2557 30.7447 14.8449 30.8047 14.4752 30.9886C14.1029 31.1609 13.8 31.4354 13.5667 31.8119C13.3333 32.1884 13.22 32.5853 13.2269 33.0025C13.2311 33.4083 13.3601 33.8029 13.614 34.1864C13.8652 34.5585 14.2182 34.8854 14.6728 35.1672C15.1275 35.449 15.5773 35.6197 16.0222 35.6792C16.4716 35.7315 16.8824 35.6715 17.2548 35.4992C17.6271 35.3268 17.9322 35.0488 18.1699 34.6652Z" fill="#9F9F9F"/>
<path d="M20.4466 20.2096L21.9646 19.0167L26.8186 22.8396L24.312 17.2357L26.0468 15.6491L31.1853 19.6312L28.5196 13.8653L29.9291 12.7575L33.314 20.7167L31.589 22.0723L26.2351 17.877L28.9966 24.1097L27.2913 25.4498L20.4466 20.2096Z" fill="#9F9F9F"/>
<path d="M49.3507 5.53699L51.5052 5.19546L55.8708 12.9572L54.0134 13.2516L53.0465 11.4755L49.8023 11.9897L49.4692 13.9719L47.6366 14.2624L49.3507 5.53699ZM52.2706 10.0245L50.6557 7.0437L50.079 10.3719L52.2706 10.0245Z" fill="#9F9F9F"/>
<path d="M62.188 6.53006L64.1259 6.58387L64.9956 11.3713L66.8842 7.06356L68.764 7.28722L65.748 13.4303L63.6939 13.1859L62.188 6.53006Z" fill="#9F9F9F"/>
<path d="M75.5216 16.0855C74.8989 15.8419 74.5082 15.3839 74.3494 14.7115C74.1906 14.0392 74.2893 13.2476 74.6455 12.337C75.0778 11.2317 75.6868 10.5007 76.4726 10.1439C77.2613 9.77934 78.1811 9.80256 79.2319 10.2136C79.8234 10.445 80.4796 10.8093 81.2005 11.3067L78.8942 17.2027L77.3297 16.5908L77.7392 15.6471L77.6925 15.6288C77.3471 15.9155 76.9884 16.0983 76.6165 16.1772C76.2524 16.2591 75.8874 16.2285 75.5216 16.0855ZM76.4336 14.7864C76.6749 14.8808 76.9625 14.8452 77.2965 14.6797C77.6305 14.5142 77.9824 14.2569 78.3522 13.908L79.1194 11.9465C78.8977 11.7791 78.6624 11.6466 78.4133 11.5492C77.9463 11.3665 77.5297 11.3875 77.1636 11.6123C76.8053 11.8401 76.5043 12.2653 76.2607 12.888C76.0689 13.3784 75.9868 13.7949 76.0142 14.1377C76.0447 14.4727 76.1845 14.689 76.4336 14.7864Z" fill="#9F9F9F"/>
<path d="M90.402 13.271L92.0609 14.4208L91.1325 15.7603L89.4736 14.6105L90.402 13.271ZM85.2491 18.989L86.2383 19.6746L88.1879 16.8617L87.1987 16.1761L88.0629 14.9293L90.5049 16.6219L87.6911 20.6816L88.5772 21.2957L87.7131 22.5425L84.385 20.2358L85.2491 18.989Z" fill="#9F9F9F"/>
<path d="M93.2051 25.3136L93.985 26.1462L98.4593 21.9554L97.7223 21.1685L98.8203 20.1401L100.766 22.2171L95.1934 27.4364L95.9732 28.269L94.8661 29.306L92.0979 26.3506L93.2051 25.3136Z" fill="#9F9F9F"/>
<path d="M99.3424 35.9287C99.0105 35.3483 98.9937 34.7465 99.2921 34.1234C99.5905 33.5003 100.164 32.946 101.013 32.4606C102.043 31.8714 102.976 31.6845 103.812 31.8999C104.655 32.1111 105.356 32.7064 105.916 33.6859C106.232 34.2373 106.514 34.9328 106.763 35.7724L101.267 38.9152L100.433 37.4569L101.344 36.9793L101.319 36.9357C100.87 36.9421 100.476 36.8593 100.137 36.6873C99.8024 36.5226 99.5374 36.2697 99.3424 35.9287ZM100.868 35.4897C100.996 35.7146 101.243 35.8675 101.606 35.9482C101.97 36.029 102.406 36.0496 102.913 36.01L104.741 34.9645C104.674 34.695 104.573 34.4441 104.441 34.212C104.192 33.7766 103.854 33.5316 103.428 33.4768C103.006 33.4292 102.505 33.5714 101.925 33.9033C101.468 34.1647 101.142 34.4374 100.948 34.7215C100.762 35.0015 100.735 35.2576 100.868 35.4897Z" fill="#9F9F9F"/>
<path d="M104.187 47.2468C104.019 46.5997 103.917 45.81 103.882 44.8779L112.63 42.6028L113.069 44.2893L109.854 45.1255C110.495 45.4681 110.907 45.9872 111.088 46.6829C111.273 47.3947 111.147 48.0233 110.71 48.5686C110.281 49.1119 109.586 49.5087 108.623 49.759C107.475 50.0578 106.52 49.9908 105.76 49.5581C105 49.1253 104.476 48.3549 104.187 47.2468ZM105.727 47.0406C105.858 47.5421 106.122 47.8792 106.521 48.0518C106.922 48.2325 107.442 48.2397 108.081 48.0735C108.607 47.9368 108.992 47.7416 109.237 47.4879C109.484 47.2423 109.567 46.9618 109.485 46.6463C109.417 46.3875 109.261 46.169 109.016 45.9909C108.78 45.8107 108.464 45.6768 108.07 45.5893L105.631 46.2236C105.624 46.4933 105.656 46.7656 105.727 47.0406Z" fill="#9F9F9F"/>
<path d="M107.573 57.2739L107.586 58.4147L113.716 58.3497L113.704 57.2716L115.209 57.2557L115.239 60.1013L107.604 60.1823L107.616 61.3231L106.1 61.3391L106.057 57.29L107.573 57.2739Z" fill="#9F9F9F"/>
<path d="M104.663 70.3888C104.905 69.3724 105.388 68.641 106.112 68.1946C106.835 67.7563 107.717 67.6608 108.757 67.908C109.432 68.0684 109.988 68.3335 110.424 68.7034C110.868 69.0752 111.171 69.5207 111.331 70.0398C111.489 70.5671 111.495 71.1397 111.348 71.7577C111.132 72.6684 110.673 73.2982 109.971 73.647C109.27 73.9958 108.366 74.0389 107.26 73.7762C107.073 73.7317 106.936 73.6948 106.849 73.6655L107.834 69.5184C107.383 69.4973 107.01 69.6061 106.713 69.8448C106.423 70.0853 106.22 70.4536 106.102 70.9497C106.031 71.2505 105.993 71.5723 105.989 71.9149C105.993 72.2595 106.031 72.5692 106.103 72.8441L104.658 72.7972C104.565 72.4314 104.521 72.0386 104.526 71.6189C104.521 71.2054 104.567 70.7954 104.663 70.3888ZM108.53 72.3381C108.885 72.3968 109.191 72.3405 109.446 72.1693C109.71 71.9999 109.885 71.7323 109.972 71.3664C110.055 71.0167 110.022 70.7039 109.873 70.4279C109.722 70.1601 109.474 69.9552 109.13 69.8133L108.53 72.3381Z" fill="#9F9F9F"/>
<path d="M99.0189 87.3387L98.3219 88.2419L101.031 90.3329L101.728 89.4298L102.929 90.3566L102.232 91.2597L102.858 91.7423C103.354 92.1253 103.628 92.5904 103.681 93.1378C103.74 93.6903 103.565 94.2312 103.157 94.7605C102.871 95.1311 102.462 95.4698 101.929 95.7767L101.203 94.4402C101.489 94.3021 101.701 94.1437 101.839 93.965C101.956 93.8128 102.005 93.6606 101.986 93.5082C101.966 93.3558 101.873 93.2157 101.708 93.0881L101.152 92.6591L100.233 93.8501L99.0323 92.9233L99.9514 91.7323L97.2419 89.6413L96.3228 90.8323L95.1219 89.9055L97.818 86.4119L99.0189 87.3387Z" fill="#9F9F9F"/>
<path d="M87.9983 96.4566C88.5137 96.0574 89.0566 95.8165 89.6271 95.7341C90.1909 95.6567 90.738 95.7351 91.2682 95.9693C91.8036 96.21 92.2786 96.598 92.6932 97.1332C93.1077 97.6684 93.3654 98.2194 93.4662 98.7862C93.5655 99.3648 93.5072 99.9174 93.2914 100.444C93.069 100.976 92.7001 101.441 92.1848 101.84C91.6694 102.24 91.1298 102.478 90.5659 102.555C90.0006 102.644 89.4561 102.569 88.9324 102.33C88.4022 102.096 87.9323 101.714 87.5229 101.186C87.1083 100.651 86.8488 100.091 86.7444 99.5054C86.6385 98.9319 86.6942 98.376 86.9115 97.8377C87.1273 97.3111 87.4896 96.8507 87.9983 96.4566ZM88.9449 97.658C88.5881 97.9344 88.4089 98.29 88.4073 98.7246C88.4042 99.1711 88.5767 99.6189 88.9248 100.068C89.2728 100.518 89.6582 100.79 90.081 100.885C90.5023 100.992 90.8913 100.908 91.2481 100.631C91.6049 100.355 91.7874 99.9968 91.7956 99.557C91.8023 99.129 91.6316 98.6903 91.2836 98.241C90.9355 97.7917 90.5483 97.5102 90.1219 97.3965C89.694 97.2945 89.3017 97.3817 88.9449 97.658Z" fill="#9F9F9F"/>
<path d="M82.2431 107.836L80.6182 108.532L80.2036 107.564L80.1114 107.603C80.0564 108.091 79.9609 108.472 79.8247 108.749C79.6809 109.029 79.4438 109.239 79.1134 109.381C78.9752 109.44 78.8533 109.474 78.748 109.483L78.1706 107.657C78.3934 107.625 78.5662 107.583 78.6892 107.531C78.8659 107.455 79.0086 107.353 79.1172 107.225C79.2182 107.099 79.2978 106.956 79.356 106.795C79.4066 106.637 79.4768 106.398 79.5669 106.077L78.0763 102.597L79.7012 101.901L82.2431 107.836Z" fill="#9F9F9F"/>
<path d="M59.3223 106.362C59.8071 106.366 60.2704 106.425 60.7124 106.537C61.1461 106.65 61.5209 106.799 61.8368 106.986L61.6716 108.665C61.2976 108.427 60.9064 108.24 60.4981 108.103C60.0813 107.974 59.6974 107.908 59.3464 107.904C58.9452 107.901 58.6186 107.982 58.3664 108.147C58.1142 108.312 57.9869 108.532 57.9844 108.808C57.9824 109.033 58.0645 109.205 58.2306 109.324C58.3967 109.451 58.6588 109.587 59.0169 109.732L59.3167 109.86C59.3583 109.877 59.4041 109.894 59.4541 109.911C59.504 109.937 59.5623 109.962 59.629 109.988C60.0953 110.184 60.4698 110.367 60.7525 110.537C61.0351 110.715 61.2795 110.96 61.4857 111.271C61.6836 111.582 61.7804 111.984 61.776 112.477C61.769 113.279 61.4918 113.908 60.9445 114.363C60.3972 114.818 59.6389 115.041 58.6694 115.032C57.9339 115.026 57.1831 114.869 56.4168 114.561L56.7072 112.909C57.0149 113.087 57.348 113.228 57.7065 113.331C58.0566 113.435 58.3904 113.488 58.708 113.49C59.1008 113.494 59.4066 113.417 59.6253 113.26C59.8439 113.112 59.9543 112.908 59.9566 112.649C59.9586 112.423 59.8849 112.247 59.7356 112.12C59.5863 111.994 59.3451 111.858 59.012 111.713L58.4998 111.508C58.0167 111.32 57.6171 111.136 57.3011 110.958C56.985 110.78 56.7156 110.523 56.4929 110.186C56.2701 109.858 56.1611 109.431 56.1657 108.905C56.1728 108.094 56.4542 107.465 57.0097 107.019C57.5653 106.572 58.3362 106.354 59.3223 106.362Z" fill="#9F9F9F"/>
<path d="M47.4962 104.811C48.0789 104.961 48.4944 105.224 48.7429 105.599C48.9813 105.98 49.0304 106.441 48.8905 106.983L48.0476 110.249L49.0187 110.499L48.6395 111.968L47.6684 111.718L47.3237 113.053C46.7241 113.002 46.1388 112.928 45.5679 112.833L45.969 111.279L44.3909 110.872L44.7701 109.403L46.3481 109.81L47.1096 106.86C47.1534 106.69 47.1383 106.548 47.0642 106.434C46.982 106.318 46.8478 106.236 46.6617 106.188C46.4351 106.129 46.1625 106.115 45.844 106.145L45.7999 104.761C46.3805 104.652 46.9459 104.669 47.4962 104.811Z" fill="#9F9F9F"/>
<path d="M36.3633 107.824L34.8001 106.998L35.2919 106.067L35.2032 106.02C34.7898 106.284 34.4328 106.45 34.1322 106.518C33.8243 106.582 33.5114 106.53 33.1936 106.363C33.0605 106.292 32.9575 106.219 32.8844 106.143L33.9405 104.545C34.1054 104.699 34.2469 104.806 34.3651 104.869C34.5351 104.959 34.7042 105.005 34.8724 105.009C35.0331 105.009 35.1945 104.981 35.3565 104.924C35.5111 104.864 35.7413 104.769 36.0471 104.637L37.815 101.289L39.3782 102.114L36.3633 107.824Z" fill="#9F9F9F"/>
<path d="M28.003 94.2389C28.7743 94.9435 29.1792 95.7209 29.2176 96.5711C29.2498 97.4156 28.9051 98.2328 28.1835 99.0226C27.7156 99.5347 27.2141 99.8916 26.6789 100.093C26.1381 100.301 25.602 100.349 25.0704 100.237C24.5326 100.119 24.0293 99.8461 23.5603 99.4177C22.8693 98.7863 22.5415 98.0794 22.5772 97.2968C22.6129 96.5143 23.014 95.7035 23.7807 94.8643C23.9104 94.7224 24.0093 94.6203 24.0775 94.5581L27.2244 97.4331C27.4614 97.0497 27.5478 96.6701 27.4835 96.2944C27.4136 95.9249 27.1905 95.5682 26.8141 95.2243C26.5858 95.0157 26.3228 94.8264 26.0253 94.6565C25.7221 94.4927 25.4328 94.3756 25.1575 94.3052L25.9002 93.0648C26.2654 93.1608 26.6302 93.3129 26.9945 93.5212C27.3583 93.7178 27.6945 93.957 28.003 94.2389ZM24.4214 96.6723C24.1975 96.9545 24.0984 97.2489 24.124 97.5553C24.1441 97.868 24.2929 98.1511 24.5706 98.4048C24.8359 98.6472 25.1254 98.7702 25.4391 98.7738C25.7467 98.7717 26.0461 98.6547 26.3373 98.4227L24.4214 96.6723Z" fill="#9F9F9F"/>
<path d="M20.4285 85.4057C20.7867 85.9703 20.8312 86.5706 20.5618 87.2068C20.2924 87.843 19.7449 88.4231 18.9193 88.9471C17.9172 89.583 16.9939 89.8126 16.1492 89.6359C15.2975 89.4637 14.5694 88.9013 13.9648 87.9486C13.6245 87.4123 13.3106 86.7305 13.0231 85.9032L18.3686 82.5109L19.2688 83.9293L18.3806 84.4484L18.4075 84.4907C18.8556 84.4637 19.253 84.5283 19.5996 84.6845C19.9417 84.8336 20.218 85.0741 20.4285 85.4057ZM18.925 85.9144C18.7861 85.6957 18.5331 85.5543 18.1659 85.4904C17.7987 85.4265 17.3628 85.4259 16.8582 85.4888L15.0799 86.6173C15.1597 86.8834 15.2713 87.1294 15.4146 87.3552C15.6833 87.7786 16.0317 88.0079 16.4599 88.043C16.8835 88.0711 17.3776 87.9061 17.9422 87.5478C18.3868 87.2656 18.6993 86.9782 18.8798 86.6855C19.0532 86.3973 19.0683 86.1402 18.925 85.9144Z" fill="#9F9F9F"/>
<path d="M9.18098 78.3541L8.73948 76.6813L9.70921 76.4254C8.81948 76.1329 8.26371 75.5665 8.04189 74.726C7.91605 74.2492 7.92254 73.8153 8.06137 73.4243C8.18998 73.0273 8.44009 72.6976 8.8117 72.4353C8.29259 72.2698 7.88616 72.0399 7.59242 71.7458C7.28847 71.4457 7.07677 71.0693 6.95733 70.6168C6.7803 69.9461 6.84476 69.3715 7.1507 68.8931C7.44643 68.4088 7.94986 68.0728 8.661 67.8851L12.8066 66.791L13.2577 68.5001L9.37878 69.5239C9.05553 69.6092 8.82635 69.7561 8.69122 69.9647C8.54588 70.1673 8.5084 70.4019 8.57879 70.6686C8.66623 70.9999 8.88466 71.2707 9.23407 71.4811C9.58348 71.6914 9.99046 71.8087 10.455 71.833L13.8976 70.9244L14.3487 72.6336L10.4697 73.6574C10.1546 73.7405 9.92539 73.8875 9.78218 74.0982C9.63897 74.3088 9.60256 74.5475 9.67295 74.8142C9.75186 75.1132 9.93965 75.3662 10.2363 75.5731C10.5227 75.7741 10.8893 75.9021 11.336 75.9571L14.9725 74.9973L15.4236 76.7065L9.18098 78.3541Z" fill="#9F9F9F"/>
</svg>
